<?xml version="1.0" standalone="no"?>
<!DOCTYPE svg PUBLIC "-//W3C//DTD SVG 20010904//EN"
 "http://www.w3.org/TR/2001/REC-SVG-20010904/DTD/svg10.dtd">
<svg version="1.0" xmlns="http://www.w3.org/2000/svg"
 width="300.000000pt" height="300.000000pt" viewBox="0 0 300.000000 300.000000"
 preserveAspectRatio="xMidYMid meet">
<metadata>
Created by potrace 1.11, written by Peter Selinger 2001-2013
</metadata>
<g transform="translate(0.000000,300.000000) scale(0.100000,-0.100000)"
fill="#000000" stroke="none">
<path d="M1315 2988 c-111 -13 -357 -74 -450 -112 -299 -122 -536 -342 -683
-636 -70 -140 -75 -152 -107 -264 -25 -88 -27 -98 -39 -166 -3 -19 -8 -48 -12
-65 -10 -56 -12 -320 -3 -395 26 -210 83 -401 172 -575 43 -83 96 -165 107
-165 21 0 116 23 123 30 5 4 10 34 12 66 2 33 6 101 10 153 3 52 8 97 10 100
7 6 28 -15 31 -31 11 -70 17 -95 40 -159 97 -275 314 -490 563 -558 141 -39
387 -7 530 69 197 105 298 345 247 588 -35 171 -129 281 -411 482 -306 218
-471 393 -534 564 -125 339 17 740 330 932 34 22 65 39 68 39 3 0 12 4 19 9
66 42 230 40 389 -4 74 -20 209 -78 201 -85 -2 -2 -28 2 -58 10 -78 21 -144
19 -281 -10 -152 -31 -218 -62 -295 -139 -91 -92 -136 -206 -129 -335 4 -86
27 -150 82 -233 55 -84 128 -151 312 -287 174 -128 317 -246 368 -302 21 -23
43 -47 49 -53 44 -45 121 -181 148 -261 40 -115 54 -314 31 -435 -54 -293
-217 -524 -453 -642 l-87 -43 -125 0 c-113 0 -189 7 -210 20 -9 6 -119 -14
-138 -24 -13 -7 26 -19 173 -52 74 -16 302 -18 397 -3 46 7 103 15 128 18 71
9 224 53 303 86 333 142 597 419 736 772 30 77 67 202 77 267 3 18 8 43 10 55
23 109 22 445 -1 526 -2 8 -7 31 -10 50 -19 115 -92 327 -153 440 -71 134
-179 287 -238 341 l-29 25 -73 -16 c-40 -8 -70 -19 -66 -22 4 -4 9 -108 11
-230 4 -201 0 -261 -12 -182 -26 179 -161 439 -281 541 -24 21 -44 41 -44 44
0 4 30 12 66 19 l67 13 -24 19 c-74 58 -344 170 -468 193 -99 18 -292 24 -396
13z"/>
<path d="M2540 290 c-11 -11 -20 -30 -19 -42 1 -18 3 -15 10 10 12 39 28 34
27 -8 -1 -20 -6 -30 -17 -30 -25 0 1 -19 37 -26 22 -4 32 -3 32 5 0 7 4 10 9
7 12 -8 34 21 28 36 -3 8 -6 6 -6 -6 -1 -12 -6 -16 -17 -12 -9 3 -18 6 -20 6
-2 0 -4 7 -4 15 0 8 4 15 10 15 5 0 7 7 4 15 -8 21 13 19 25 -2 6 -10 11 -13
11 -6 0 17 -40 43 -67 43 -13 0 -32 -9 -43 -20z m63 3 c-7 -2 -21 -2 -30 0
-10 3 -4 5 12 5 17 0 24 -2 18 -5z m-8 -23 c3 -5 -1 -10 -9 -10 -9 0 -16 5
-16 10 0 6 4 10 9 10 6 0 13 -4 16 -10z m9 -61 c-11 -18 -30 -8 -30 16 0 23 1
23 18 8 10 -8 15 -20 12 -24z"/>
</g>
</svg>
